<?xml version="1.0" encoding="UTF-8"?>
<svg id="_Слой_1" data-name="Слой_1" xmlns="http://www.w3.org/2000/svg" version="1.1" viewBox="0 0 118.69 126.77">
  <!-- Generator: Adobe Illustrator 29.7.1, SVG Export Plug-In . SVG Version: 2.1.1 Build 8)  -->
  <defs>
    <style>
      .st0 {
        fill: none;
        stroke: #1d1d1b;
        stroke-miterlimit: 10;
      }
    </style>
  </defs>
  <path class="st0" d="M2.25,24.96C23.91,13.25,48.23,7.56,72.21,2c-14.97,20.61-33.43,38.67-54.36,53.19,1.54-.72,3.1.89,4.04,2.3,14.86,22.35,29.87,44.99,38.77,70.31.9.13,1.57-1.21.92-1.85"/>
  <path class="st0" d="M18.32,91.74c21.43-10.02,45.54-14.25,69.1-12.13"/>
  <path class="st0" d="M66.01,96.03c-.17-.48.55-.87,1-.64s.64.77.79,1.26c1.74,5.68,3.49,11.37,5.23,17.05,4.82-7.67,9.63-15.35,14.45-23.02.24,6.57,1,13.13,2.28,19.58,6.14-5.36,7.46-14.91,13.94-19.85.96,11.51,2.55,22.98,4.77,34.32-.04-.7-.08-1.41-.12-2.11"/>
  <path class="st0" d="M114.05,87.93l2.19,20.42c.04.34.11.74.42.9s.75-.3.47-.51"/>
</svg>